<svg width="33" height="32" viewBox="0 0 33 32" fill="none" xmlns="http://www.w3.org/2000/svg">
<path d="M26.9419 17.5691H24.4811C24.1061 17.5691 23.6745 17.4533 23.3811 17.0882L23.36 17.062L23.3414 17.0342C23.1773 16.7892 23.1003 16.5166 23.1003 16.2373C23.1003 16.0092 23.1336 15.7815 23.212 15.562C23.2746 15.3867 23.3573 15.2125 23.4702 15.0545L23.7154 14.7113H28.8053C29.1626 14.7113 29.5848 14.7824 29.9227 15.0596C30.281 15.3534 30.3942 15.7527 30.3942 16.1078C30.3942 16.2009 30.3909 16.3484 30.3508 16.4968L29.1797 22.3709L28.8643 22.5498C28.0275 23.0244 27.1807 23.39 26.3239 23.6408L26.3168 23.6429L26.3097 23.6449C25.4353 23.8849 24.4765 23.9999 23.4405 23.9999C22.3954 23.9999 21.4259 23.8424 20.5439 23.5132L20.5346 23.5097L20.5253 23.506C19.6692 23.1636 18.9312 22.6848 18.3232 22.0674C17.718 21.4528 17.2619 20.7277 16.9501 19.9034C16.6373 19.0762 16.4868 18.1752 16.4868 17.2084C16.4868 15.9785 16.7208 14.8033 17.1919 13.6887L17.1955 13.68C17.6777 12.5785 18.3308 11.6068 19.1574 10.7723C20.0006 9.92255 20.9894 9.25172 22.1179 8.76378C23.2648 8.25337 24.4954 8 25.7992 8C26.6738 8 27.5273 8.08475 28.3584 8.25538C29.2267 8.43365 30.0603 8.75628 30.8576 9.21538L31.2498 9.44121V9.87128C31.2498 10.2824 31.1747 10.695 30.956 11.0521C30.6569 11.5406 30.141 11.7426 29.6146 11.7426C29.299 11.7426 28.9929 11.6634 28.7112 11.5508L28.7007 11.5466L28.6904 11.5421C28.5223 11.4697 28.2946 11.3853 28.0006 11.2893L27.9835 11.2837L27.9667 11.2774C27.7167 11.1841 27.3888 11.0947 26.973 11.0144L26.9565 11.0112L26.94 11.0074C26.5949 10.9269 26.1351 10.8794 25.5448 10.8794C24.7719 10.8794 24.0408 11.0492 23.3407 11.3943L23.3355 11.3969C22.6319 11.7378 22.0145 12.199 21.4806 12.7866C20.9433 13.378 20.5115 14.0641 20.1881 14.8515C19.8701 15.6256 19.711 16.4312 19.711 17.2731C19.711 17.8746 19.7995 18.4069 19.9662 18.8769C20.1493 19.3501 20.398 19.7507 20.7078 20.0875C21.0251 20.4162 21.4099 20.6736 21.8721 20.8601C22.3254 21.0431 22.8514 21.1421 23.4636 21.1421C24.1477 21.1421 24.7381 21.0755 25.2421 20.9517C25.6361 20.8549 26.0134 20.7254 26.3748 20.563L26.9419 17.5691Z" fill="#FF4B29"/>
<path d="M15.2659 8.67879C15.3314 8.83177 15.3666 8.99351 15.387 9.14311C15.4053 9.26428 15.4174 9.38675 15.4174 9.50452C15.4174 9.95393 15.2792 10.5033 14.7371 10.8221C14.376 11.0427 13.9569 11.1168 13.551 11.1168C12.4948 11.1168 11.5215 11.1023 10.6315 11.0732C9.94628 11.0508 9.22676 11.0371 8.47287 11.0324L7.58594 13.7379L7.59494 13.7362C8.1109 13.6247 8.62444 13.5677 9.13433 13.5677C9.86281 13.5677 10.5507 13.6724 11.1893 13.8919C11.8389 14.0957 12.4141 14.405 12.9023 14.824C13.3926 15.2303 13.7687 15.7237 14.0297 16.2943C14.3128 16.8792 14.4462 17.5192 14.4462 18.2012C14.4462 18.9346 14.2724 19.6516 13.9368 20.3461C13.6133 21.048 13.1397 21.6702 12.5264 22.2109C11.9195 22.7595 11.1898 23.1903 10.3511 23.5101C9.49534 23.8425 8.54538 24 7.51565 24C6.49498 24 5.56143 23.8849 4.72569 23.6412L4.71574 23.6383L4.70588 23.6352C3.93738 23.391 3.25007 23.1035 2.65096 22.768L2.25 22.5435V22.1071C2.25 21.6546 2.3472 21.1558 2.70979 20.7783C2.99846 20.4648 3.40321 20.2358 3.90832 20.2358C4.24358 20.2358 4.54839 20.3408 4.80733 20.478C4.97422 20.5554 5.18636 20.6477 5.44617 20.7554C5.67363 20.8498 5.95921 20.9442 6.30876 21.0363C6.63016 21.1038 7.02953 21.1422 7.51565 21.1422C8.11949 21.1422 8.63714 21.0552 9.08033 20.8957C9.55246 20.7111 9.92131 20.4876 10.2042 20.2348C10.5107 19.9602 10.7379 19.6516 10.8932 19.3058C11.052 18.9524 11.1296 18.5932 11.1296 18.2228C11.1296 17.58 10.9102 17.1803 10.5397 16.9055C10.1128 16.5888 9.54213 16.4039 8.76435 16.4039C8.39976 16.4039 7.95994 16.4757 7.43611 16.6429L7.42986 16.6449L7.42357 16.6468C6.9482 16.7907 6.47248 17.0224 5.99635 17.3524L5.60919 17.6208L3.46328 16.7308L6.20747 8.19431H15.0582L15.2659 8.67879Z" fill="#FF4B29"/>
</svg>
