<svg width="32" height="32" viewBox="0 0 32 32" fill="none" xmlns="http://www.w3.org/2000/svg">
<path fill-rule="evenodd" clip-rule="evenodd" d="M16 28C22.6274 28 28 22.6274 28 16C28 9.37258 22.6274 4 16 4C9.37258 4 4 9.37258 4 16C4 22.6274 9.37258 28 16 28ZM16 30C23.732 30 30 23.732 30 16C30 8.26801 23.732 2 16 2C8.26801 2 2 8.26801 2 16C2 23.732 8.26801 30 16 30Z" fill="#FF4B29"/>
<path fill-rule="evenodd" clip-rule="evenodd" d="M29 16.895H3V14.895H29V16.895Z" fill="#FF4B29"/>
<path fill-rule="evenodd" clip-rule="evenodd" d="M15 29L15 3L17 3L17 29H15Z" fill="#FF4B29"/>
<path fill-rule="evenodd" clip-rule="evenodd" d="M11.9307 7.28171C10.7568 9.46192 10 12.5425 10 16C10 19.4575 10.7568 22.5381 11.9307 24.7183C13.1266 26.9392 14.6112 28 16 28C17.3888 28 18.8734 26.9392 20.0693 24.7183C21.2432 22.5381 22 19.4575 22 16C22 12.5425 21.2432 9.46192 20.0693 7.28171C18.8734 5.06077 17.3888 4 16 4C14.6112 4 13.1266 5.06077 11.9307 7.28171ZM10.1698 6.33351C11.5074 3.84938 13.5229 2 16 2C18.4771 2 20.4926 3.84938 21.8302 6.33351C23.1898 8.85838 24 12.2778 24 16C24 19.7222 23.1898 23.1416 21.8302 25.6665C20.4926 28.1506 18.4771 30 16 30C13.5229 30 11.5074 28.1506 10.1698 25.6665C8.81024 23.1416 8 19.7222 8 16C8 12.2778 8.81024 8.85838 10.1698 6.33351Z" fill="#FF4B29"/>
<path fill-rule="evenodd" clip-rule="evenodd" d="M5.94121 7.20842C8.06469 8.84768 11.7296 10 16 10C20.2704 10 23.9353 8.84768 26.0588 7.20842L27.2809 8.79158C24.706 10.7793 20.5649 12 16 12C11.4351 12 7.29395 10.7793 4.71907 8.79158L5.94121 7.20842Z" fill="#FF4B29"/>
<path fill-rule="evenodd" clip-rule="evenodd" d="M26.0589 24.7916C23.9354 23.1523 20.2705 22 16.0001 22C11.7296 22 8.06475 23.1523 5.94126 24.7916L4.71913 23.2084C7.29401 21.2207 11.4351 20 16.0001 20C20.565 20 24.7061 21.2207 27.281 23.2084L26.0589 24.7916Z" fill="#FF4B29"/>
</svg>
