<svg width="33" height="32" viewBox="0 0 33 32" fill="none" xmlns="http://www.w3.org/2000/svg">
<path fill-rule="evenodd" clip-rule="evenodd" d="M19.8445 26.9286C20.4795 27.0465 21.1251 27.0978 21.7707 27.0816C22.3537 27.1005 22.9374 27.0764 23.5169 27.0096C25.1771 26.6526 25.5007 25.5343 25.8922 24.1815L25.9021 24.1474C25.9291 24.0484 26.1271 23.1753 26.2531 22.5902L26.3611 22.1042C26.4523 21.6695 26.5849 21.2445 26.7572 20.8351L26.8922 20.7901C28.4943 20.286 30.1325 19.4759 30.1325 17.2707V14.7055C30.1865 13.5354 30.1415 12.2302 29.3584 11.4202C28.8843 10.9427 28.2305 10.6877 27.5583 10.7181C27.0002 10.7181 26.9372 10.6821 26.6582 10.3851L26.3431 10.07C26.0936 9.83483 25.8323 9.61252 25.5601 9.40398L25.8031 9.16996C26.209 8.78351 26.4589 8.26139 26.5052 7.70282C26.5953 6.72524 26.0257 5.80655 25.11 5.45261C24.3286 5.13123 23.4883 4.9779 22.6438 5.00257C21.4143 5.03585 20.2106 5.363 19.1335 5.95666L18.9354 5.90265C17.6018 5.58045 16.2232 5.48611 14.8581 5.62363C12.2658 5.83065 8.78248 6.91075 6.59527 9.24197C6.54693 9.16871 6.49275 9.09948 6.43326 9.03495C6.06278 8.59998 5.53148 8.3342 4.96123 8.29856C4.39099 8.26292 3.83073 8.46048 3.40897 8.84593C3.11891 9.10137 2.89893 9.42669 2.76991 9.79102C2.64738 10.0973 2.63549 10.1313 2.577 10.2985L2.5719 10.3131C1.9716 11.964 2.22058 13.8045 3.23796 15.2365C3.29803 15.3219 3.36144 15.3895 3.41842 15.4503C3.52366 15.5624 3.60699 15.6513 3.60699 15.7856V16.5057C3.56227 17.6262 3.63467 18.7484 3.82301 19.854C4.12004 21.0151 4.31806 21.7081 4.48008 22.1402C5.33516 25.2905 5.73119 26.7306 7.59437 26.9376C8.68774 27.0818 9.79531 27.0818 10.8887 26.9376C11.8287 26.8323 12.6633 26.2881 13.1389 25.4705C14.7117 25.7 16.3095 25.7 17.8823 25.4705C18.3158 26.1988 19.0222 26.7237 19.8445 26.9286ZM19.2961 24.0917C19.2001 23.6848 18.8318 23.4012 18.4139 23.4124L18.2022 23.4036C16.4011 23.7476 14.5512 23.7476 12.7502 23.4036C12.5116 23.3609 12.2659 23.4183 12.0709 23.5624C11.8727 23.7038 11.7418 23.9209 11.7092 24.1623C11.589 24.6002 11.2089 24.917 10.7564 24.9562C9.81621 25.0753 8.86474 25.0753 7.92454 24.9562C7.40404 24.9033 7.20113 24.5769 6.37186 21.498V21.3921C6.13667 20.7185 5.93933 20.0323 5.78079 19.3366C5.62426 18.4102 5.57394 17.469 5.63081 16.5312V16.3812C5.63081 16.2737 5.64863 16.0891 5.66359 15.934C5.67441 15.8218 5.68374 15.725 5.68374 15.6843C5.68814 15.6256 5.68814 15.5666 5.68374 15.5078C5.67146 15.2875 5.57703 15.0797 5.41908 14.9256L5.36615 14.8374L4.96916 14.2551C4.28317 13.3039 4.11456 12.0741 4.51924 10.9733C4.56101 10.8323 4.61109 10.6938 4.66921 10.5587C4.69716 10.4602 4.75218 10.3716 4.82801 10.3028L4.83132 10.3C4.89618 10.2443 5.07929 10.0869 5.32204 10.347C5.38977 10.432 5.44888 10.5237 5.49848 10.6204C5.71903 10.9821 5.83372 11.1674 6.00134 11.3968C6.1723 11.6207 6.43437 11.7566 6.71592 11.7673C7.00475 11.76 7.27169 11.6117 7.43051 11.3703C8.96554 9.05894 12.3267 7.80622 14.9733 7.59449C16.1238 7.46688 17.2877 7.53851 18.4139 7.80622L18.908 7.94737C19.1493 8.02623 19.4129 7.9973 19.6314 7.86797C20.51 7.32902 21.5126 7.02521 22.5426 6.98577C23.136 6.93931 23.7322 7.02363 24.2894 7.23278C24.5893 7.36511 24.5982 7.54155 24.5893 7.66506C24.5805 7.78857 24.4394 7.98266 24.3776 8.05323C24.3159 8.12381 24.1041 8.31789 23.963 8.4414L23.9347 8.46615C23.8045 8.58003 23.6865 8.68315 23.6454 8.73253C23.5321 8.84381 23.4287 8.96484 23.3366 9.09423C23.0614 9.4962 23.1641 10.0452 23.566 10.3205C24.0564 10.6613 24.5249 11.0325 24.9687 11.4321L25.2245 11.6791C25.7528 12.3047 26.5527 12.6338 27.3683 12.5613C27.73 12.5613 27.8623 12.7024 27.8623 12.7024C28.0211 12.8965 28.1976 13.3288 28.1358 14.6609V17.2193C28.1358 18.0045 27.8447 18.4632 26.195 18.9837L25.7009 19.1425C25.4804 19.2042 25.2953 19.3542 25.1892 19.5572C24.8712 20.17 24.6368 20.8228 24.4923 21.498L24.3776 21.9832C24.2629 22.5125 24.0865 23.2977 24.0336 23.4741C23.6719 24.7621 23.6101 24.8592 23.0896 24.9739C22.1433 25.0899 21.1864 25.0899 20.2401 24.9739C19.7927 24.8654 19.4346 24.5308 19.2961 24.0917Z" fill="#FF4B29"/>
</svg>
