<svg viewBox="0 0 32 32" xmlns="http://www.w3.org/2000/svg" aria-hidden="true">
  <g fill="#FFFFFF">
    <path d="M8 4a4 4 0 0 0 0 8v2a6 6 0 1 1 3.911-1.449l-.653-.758c-.36-.419-.299-1.046.019-1.498A4 4 0 0 0 8 4Z" fill-rule="evenodd" clip-rule="evenodd"></path>
    <path d="M17.952 6.001c.282-.013.556.093.755.292l11 11a.999.999 0 0 1 0 1.414l-11 11a.999.999 0 0 1-1.414 0l-11-11a1.002 1.002 0 0 1-.292-.755l.5-10.5a1 1 0 0 1 .951-.951l10.5-.5ZM8.456 8.456l-.436 9.15 9.98 9.98L27.586 18l-9.98-9.98-9.15.436Z" fill-rule="evenodd" clip-rule="evenodd"></path>
  </g>
</svg>
