<svg width="33" height="32" viewBox="0 0 33 32" fill="none" xmlns="http://www.w3.org/2000/svg">
<path d="M2.6665 8C2.6665 6.34315 4.00965 5 5.6665 5H19.6665C21.3234 5 22.6665 6.34315 22.6665 8V13H20.6665V8C20.6665 7.44772 20.2188 7 19.6665 7H5.6665C5.11422 7 4.6665 7.44772 4.6665 8V14C4.6665 14.5523 5.11422 15 5.6665 15H6.6665C7.21879 15 7.6665 15.4477 7.6665 16V18.1492L9.88564 15.3753C10.0754 15.1381 10.3627 15 10.6665 15H12.6665V17H11.1471L7.44737 21.6247C6.85686 22.3628 5.6665 21.9453 5.6665 21V17C4.00965 17 2.6665 15.6569 2.6665 14V8Z" fill="#FF4B29"/>
<path fill-rule="evenodd" clip-rule="evenodd" d="M30.6665 14C30.6665 12.3431 29.3234 11 27.6665 11H13.6665C12.0096 11 10.6665 12.3431 10.6665 14V20C10.6665 21.6569 12.0096 23 13.6665 23H22.1859L25.8856 27.6247C26.4761 28.3628 27.6665 27.9453 27.6665 27V23C29.3234 23 30.6665 21.6569 30.6665 20V14ZM27.6665 13C28.2188 13 28.6665 13.4477 28.6665 14V20C28.6665 20.5523 28.2188 21 27.6665 21H26.6665C26.1142 21 25.6665 21.4477 25.6665 22V24.1492L23.4474 21.3753C23.2576 21.1381 22.9703 21 22.6665 21H13.6665C13.1142 21 12.6665 20.5523 12.6665 20V14C12.6665 13.4477 13.1142 13 13.6665 13H27.6665Z" fill="#FF4B29"/>
<path d="M17.6665 17C17.6665 17.5523 17.2188 18 16.6665 18C16.1142 18 15.6665 17.5523 15.6665 17C15.6665 16.4477 16.1142 16 16.6665 16C17.2188 16 17.6665 16.4477 17.6665 17Z" fill="#FF4B29"/>
<path d="M21.6665 17C21.6665 17.5523 21.2188 18 20.6665 18C20.1142 18 19.6665 17.5523 19.6665 17C19.6665 16.4477 20.1142 16 20.6665 16C21.2188 16 21.6665 16.4477 21.6665 17Z" fill="#FF4B29"/>
<path d="M25.6665 17C25.6665 17.5523 25.2188 18 24.6665 18C24.1142 18 23.6665 17.5523 23.6665 17C23.6665 16.4477 24.1142 16 24.6665 16C25.2188 16 25.6665 16.4477 25.6665 17Z" fill="#FF4B29"/>
</svg>
